<?xml version="1.0" encoding="iso-8859-1"?>
<!-- Generator: Adobe Illustrator 19.0.0, SVG Export Plug-In . SVG Version: 6.00 Build 0)  -->
<svg version="1.1" id="Capa_1" xmlns="http://www.w3.org/2000/svg" xmlns:xlink="http://www.w3.org/1999/xlink" x="0px" y="0px"
	 viewBox="0 0 512 512" style="enable-background:new 0 0 512 512;" xml:space="preserve">
<path style="fill:#81C8EE;" d="M466.997,481.993H286.002c-8.291,0-15-8.709-15-16.999V255c0-8.291,6.709-15,15-15h180.995
	c8.291,0,15,6.709,15,15v209.994C481.997,473.284,475.288,481.993,466.997,481.993z"/>
<path style="fill:#DD122F;" d="M507.602,244.395l-89.997-89.997c-2.813-2.813-6.621-4.395-10.605-4.395H226.005
	c-8.291,0-15,6.709-15,15L241.005,255c0,8.291,6.709,15,15,15h240.993c6.064,0,11.543-3.647,13.857-9.258
	C513.183,255.132,511.894,248.687,507.602,244.395z"/>
<path style="fill:#57555C;" d="M76.009,120.004H45.01c-8.291,0-15,6.709-15,15v89.997h60.998v-89.997
	C91.008,126.713,84.299,120.004,76.009,120.004z"/>
<path style="fill:#CAE8F9;" d="M326.5,244.499L176.505,94.504c-2.699-2.999-6.599-4.499-10.499-4.499c-3.9,0-7.8,1.5-10.499,4.499
	L4.512,244.499c-4.501,4.2-5.7,10.501-3.301,16.201c2.401,5.7,7.8,9.3,13.801,9.3h15v194.994c0,8.399,6.599,16.999,15,16.999
	h240.993c8.401,0,15-8.601,15-16.999V269.999h15c6,0,11.4-3.6,13.801-9.3C332.201,255,331.001,248.7,326.5,244.499z"/>
<path style="fill:#B7E0F6;" d="M329.802,260.7c-2.401,5.7-7.8,9.3-13.801,9.3h-15v194.994c0,8.399-6.599,16.999-15,16.999H166.006
	V90.005c3.9,0,7.8,1.5,10.499,4.499L326.5,244.499C331.001,248.7,332.201,255,329.802,260.7z"/>
<path style="fill:#15B7BE;" d="M406.999,389.996h-60.998c-8.291,0-15-6.709-15-15v-59.998c0-8.291,6.709-15,15-15h60.998
	c8.291,0,15,6.709,15,15v59.998C421.998,383.287,415.29,389.996,406.999,389.996z"/>
<path style="fill:#1DE8F1;" d="M166.006,180.002c-24.9,0-44.999,20.098-44.999,44.999c0,24.898,20.098,44.999,44.999,44.999
	s44.999-20.1,44.999-44.999C211.005,200.101,190.906,180.002,166.006,180.002z"/>
<path style="fill:#B25C4A;" d="M241.004,314.998v134.996H91.008V314.998c0-8.401,6.599-15,15-15h119.996
	C234.405,299.999,241.004,306.597,241.004,314.998z"/>
<path style="fill:#8B4330;" d="M241.004,314.998v134.996h-74.998V299.999h59.998C234.405,299.999,241.004,306.597,241.004,314.998z"
	/>
<rect x="121.006" y="330.001" style="fill:#1DE8F1;" width="89.997" height="119.996"/>
<rect x="166.005" y="330.001" style="fill:#1BD9DE;" width="44.999" height="119.996"/>
<rect x="151.005" y="300.002" style="fill:#B25C4A;" width="29.999" height="149.996"/>
<rect x="166.005" y="300.002" style="fill:#8B4330;" width="15" height="149.996"/>
<path style="fill:#787780;" d="M496.996,449.994H15.01c-8.401,0-15,6.599-15,15v31.999c0,8.401,6.599,15,15,15h481.986
	c8.401,0,15-6.599,15-15v-31.999C511.996,456.593,505.397,449.994,496.996,449.994z"/>
<path style="fill:#57555C;" d="M511.996,464.994v31.999c0,8.401-6.599,15-15,15H256.003v-61.998h240.993
	C505.397,449.994,511.996,456.593,511.996,464.994z"/>
<path style="fill:#1BD9DE;" d="M211.005,225.001c0,24.898-20.098,44.999-44.999,44.999v-89.997
	C190.906,180.002,211.005,200.101,211.005,225.001z"/>
<path style="fill:#FEDB41;" d="M271.003,45.006c0,24.898-20.099,44.999-44.999,44.999s-44.999-20.1-44.999-44.999
	c0-24.9,20.098-44.999,44.999-44.999S271.003,20.107,271.003,45.006z"/>
<g>
	<path style="fill:#CAE8F9;" d="M511.996,60.006c0,16.5-13.5,29.999-29.999,29.999H361c-16.5,0-29.999-13.5-29.999-29.999
		s13.5-29.999,29.999-29.999h2.701c6.299-17.4,23.797-29.999,43.298-29.999c5.4,0,10.499,0.899,15,2.699
		c12.599,4.501,22.799,14.7,27.298,27.3h32.7C498.496,30.006,511.996,43.507,511.996,60.006z"/>
	<path style="fill:#CAE8F9;" d="M151.006,30.006c0,16.5-13.5,29.999-29.999,29.999H30.01c-16.5,0-29.999-13.5-29.999-29.999
		S13.51,0.007,30.01,0.007h90.997C137.507,0.007,151.006,13.508,151.006,30.006z"/>
</g>
<path style="fill:#B7E0F6;" d="M151.006,30.006c0,16.5-13.5,29.999-29.999,29.999H76.009V0.007h44.999
	C137.507,0.007,151.006,13.508,151.006,30.006z"/>
<path style="fill:#FCBF29;" d="M271.003,45.006c0,24.898-20.099,44.999-44.999,44.999V0.007
	C250.904,0.007,271.003,20.107,271.003,45.006z"/>
<path style="fill:#B7E0F6;" d="M511.996,60.006c0,16.5-13.5,29.999-29.999,29.999h-59.998V2.706
	c12.599,4.501,22.799,14.7,27.298,27.3h32.7C498.496,30.006,511.996,43.507,511.996,60.006z"/>
<g>
</g>
<g>
</g>
<g>
</g>
<g>
</g>
<g>
</g>
<g>
</g>
<g>
</g>
<g>
</g>
<g>
</g>
<g>
</g>
<g>
</g>
<g>
</g>
<g>
</g>
<g>
</g>
<g>
</g>
</svg>
