<svg id="Layer_1" height="512" viewBox="0 0 128 128" width="512" xmlns="http://www.w3.org/2000/svg" data-name="Layer 1"><path d="m18.638 58.737a4.895 4.895 0 0 1 -4.682-3.166 4.719 4.719 0 0 1 1.18-4.9 12.655 12.655 0 0 0 -2.9.079 1.75 1.75 0 0 1 -.465-3.469 12.67 12.67 0 0 1 7.818 1.083c4.188-.7 7.3 2.53 8.482 4.627a1.75 1.75 0 0 1 -3.046 1.725 7.177 7.177 0 0 0 -1.957-2.151q.064.231.111.463a4.536 4.536 0 0 1 -3.1 5.52 5.57 5.57 0 0 1 -1.441.189zm.286-6.514c-1.295.616-1.937 1.439-1.677 2.158a1.538 1.538 0 0 0 1.927.784c.645-.172.662-.994.57-1.453a2.973 2.973 0 0 0 -.82-1.489z" fill="#ffb594"/><path d="m114.461 55.757a7.334 7.334 0 0 1 -6.635-4.066 30.04 30.04 0 0 0 -17.372-15.213v-11.122a13.8 13.8 0 0 0 -9.539 9.552h-26.5a29.963 29.963 0 0 0 -29.966 29.962 29.931 29.931 0 0 0 13.794 25.22l1.85 12.554h9.707v-3.253a4.571 4.571 0 0 1 4.562-4.558h26.577a2.425 2.425 0 0 1 2.461 2.405v5.406h9.71l1.85-11.312a29.969 29.969 0 0 0 15.79-23.784h3.671a1.578 1.578 0 0 0 1.579-1.578v-8.635a1.561 1.561 0 0 0 -1.539-1.578z" fill="#ffd3b7"/><path d="m116 57.34v8.63a1.583 1.583 0 0 1 -1.58 1.58h-3.67a29.941 29.941 0 0 1 -15.79 23.78l-1.85 11.31h-9.71v-5.4a2.429 2.429 0 0 0 -2.46-2.41h-12.85v-59.92h12.82a13.789 13.789 0 0 1 9.54-9.55v11.12a30.053 30.053 0 0 1 17.38 15.21 7.323 7.323 0 0 0 6.63 4.07 1.456 1.456 0 0 1 1.27.7 1.577 1.577 0 0 1 .27.88z" fill="#ffb594"/><circle cx="88.735" cy="64.325" fill="#f9235e" r="4.624"/><path d="m97.284 53.271a1.75 1.75 0 0 1 -1.75-1.75 1.829 1.829 0 1 0 -3.657 0 1.75 1.75 0 0 1 -3.5 0 5.329 5.329 0 1 1 10.657 0 1.75 1.75 0 0 1 -1.75 1.75z" fill="#00465f"/><path d="m115.73 56.46a2.951 2.951 0 0 0 .27 5.89v-5.01a1.577 1.577 0 0 0 -.27-.88z" fill="#00607f"/><g fill="#790000"><path d="m65.5 36.657h.344a1.75 1.75 0 0 0 0-3.5h-.344a1.75 1.75 0 0 0 0 3.5z"/><path d="m116.762 54.958a3.231 3.231 0 0 0 -2.291-.951h-.047a5.609 5.609 0 0 1 -5.024-3.087 31.952 31.952 0 0 0 -17.2-15.673v-9.891a1.75 1.75 0 0 0 -2.221-1.686 15.39 15.39 0 0 0 -10.342 9.487h-7.8a1.75 1.75 0 0 0 0 3.5h9.07a1.759 1.759 0 0 0 1.7-1.353 12.027 12.027 0 0 1 6.093-7.41v8.584a1.75 1.75 0 0 0 1.2 1.659 28.412 28.412 0 0 1 16.358 14.325 9.109 9.109 0 0 0 7.529 5 2.914 2.914 0 0 0 .467 4.3v4.038h-3.5a1.75 1.75 0 0 0 -1.743 1.6 28.111 28.111 0 0 1 -14.871 22.388 1.751 1.751 0 0 0 -.9 1.262l-.88 5.35a1.75 1.75 0 1 0 3.453.565l.738-4.507a31.591 31.591 0 0 0 15.761-23.158h2.109a3.332 3.332 0 0 0 3.328-3.328v-8.637a3.374 3.374 0 0 0 -.987-2.377z"/><path d="m82.361 64.325a6.374 6.374 0 1 0 6.374-6.374 6.381 6.381 0 0 0 -6.374 6.374zm6.374-2.874a2.874 2.874 0 1 1 -2.874 2.874 2.877 2.877 0 0 1 2.874-2.874z"/><path d="m90.127 53.271a1.75 1.75 0 0 0 1.75-1.75 1.829 1.829 0 1 1 3.657 0 1.75 1.75 0 1 0 3.5 0 5.329 5.329 0 1 0 -10.657 0 1.75 1.75 0 0 0 1.75 1.75z"/><path d="m116 100.894h-30.848v-3.656a4.1 4.1 0 0 0 -1.252-2.967 4.236 4.236 0 0 0 -2.979-1.189h-26.561a6.32 6.32 0 0 0 -6.308 6.308v1.5h-6.452l-1.625-11.055a1.752 1.752 0 0 0 -.785-1.217 28.209 28.209 0 0 1 15.222-51.96h4.964a1.75 1.75 0 0 0 0-3.5h-4.965a31.739 31.739 0 0 0 -28.288 17.407 7.672 7.672 0 0 0 -6.537-2.2 12.67 12.67 0 0 0 -7.818-1.083 1.75 1.75 0 1 0 .465 3.469 12.655 12.655 0 0 1 2.9-.079 4.719 4.719 0 0 0 -1.18 4.9 4.895 4.895 0 0 0 4.682 3.166 5.57 5.57 0 0 0 1.438-.19 4.536 4.536 0 0 0 3.1-5.52q-.047-.233-.111-.463a6.817 6.817 0 0 1 1.528 1.511 31.7 31.7 0 0 0 12.036 37.043l1.44 9.775h-17.9a1.75 1.75 0 0 0 0 3.5h95.834a1.75 1.75 0 0 0 0-3.5zm-96.826-45.729a1.538 1.538 0 0 1 -1.927-.784c-.26-.718.382-1.542 1.677-2.158a2.973 2.973 0 0 1 .82 1.489c.092.459.074 1.281-.57 1.453zm32.379 44.226a2.821 2.821 0 0 1 2.856-2.808h26.532a.738.738 0 0 1 .519.2.615.615 0 0 1 .192.453v3.656h-30.1z"/><path d="m13 100.894h-1a1.75 1.75 0 0 0 0 3.5h1a1.75 1.75 0 0 0 0-3.5z"/></g></svg>