<svg height="512pt" viewBox="0 0 512 512" width="512pt" xmlns="http://www.w3.org/2000/svg"><path d="m474.5 204.5h-437c-16.570312 0-30 13.429688-30 30v150h497v-150c0-16.570312-13.429688-30-30-30zm0 0" fill="#c9aaf2"/><path d="m37.5 204.5c-16.570312 0-30 13.433594-30 30v150h120v-180zm0 0" fill="#b28ae4"/><path d="m474.5 354.5h-437c-16.570312 0-30 13.429688-30 30v90c0 16.570312 13.429688 30 30 30h437c16.570312 0 30-13.429688 30-30v-90c0-16.570312-13.429688-30-30-30zm0 0" fill="#b28ae4"/><path d="m127.5 384.5v-30h-90c-16.570312 0-30 13.433594-30 30v90c0 16.566406 13.429688 30 30 30h150l-17.574219-17.574219c-27.164062-27.164062-42.425781-64.007812-42.425781-102.425781zm0 0" fill="#976bcf"/><path d="m197 433.5h-10c-4.140625 0-7.5 3.359375-7.5 7.5s3.359375 7.5 7.5 7.5h10c4.140625 0 7.5-3.359375 7.5-7.5s-3.359375-7.5-7.5-7.5zm0 0" fill="#ffb5c0"/><path d="m325 433.5h-10c-4.140625 0-7.5 3.359375-7.5 7.5s3.359375 7.5 7.5 7.5h10c4.140625 0 7.5-3.359375 7.5-7.5s-3.359375-7.5-7.5-7.5zm0 0" fill="#ffb5c0"/><path d="m429.5 264.5h-347c-8.285156 0-15 6.714844-15 15s6.714844 15 15 15h347c8.285156 0 15-6.714844 15-15s-6.714844-15-15-15zm0 0" fill="#976bcf"/><path d="m406.34375 94.859375c-56.621094-26.140625-103.367188-39.035156-150.316406-38.855469v238.496094h119.972656l46.609375-164.21875c4.027344-14.199219-2.867187-29.234375-16.265625-35.421875zm0 0" fill="#efedee"/><path d="m105.898438 94.964844c-13.511719 6.125-20.503907 21.234375-16.453126 35.507812l46.554688 164.027344h120.027344v-238.496094c-46.566406.175782-93.332032 13.214844-150.128906 38.960938zm0 0" fill="#d4d4d5"/><path d="m350.128906 31.824219c-70.605468-32.59375-116.683594-32.300781-188.085937.066406-8.457031 3.835937-12.835938 13.292969-10.300781 22.230469l68.226562 240.378906h72.085938l68.257812-240.5c2.519531-8.886719-1.792969-18.300781-10.183594-22.175781zm0 0" fill="#efedee"/><path d="m192 400.5c-4.144531 0-7.5 3.355469-7.5 7.5v10c0 4.144531 3.355469 7.5 7.5 7.5s7.5-3.355469 7.5-7.5v-10c0-4.144531-3.355469-7.5-7.5-7.5zm0 0"/><path d="m320 400.5c-4.144531 0-7.5 3.355469-7.5 7.5v10c0 4.144531 3.355469 7.5 7.5 7.5s7.5-3.355469 7.5-7.5v-10c0-4.144531-3.355469-7.5-7.5-7.5zm0 0"/><path d="m275.734375 429.234375c-3.730469-1.789063-8.214844-.207031-10 3.53125-1.667969 3.480469-5.292969 5.734375-9.234375 5.734375s-7.566406-2.253906-9.234375-5.734375c-1.785156-3.738281-6.265625-5.320313-10-3.53125-3.738281 1.785156-5.316406 6.261719-3.53125 10 4.144531 8.664063 13.078125 14.265625 22.765625 14.265625s18.625-5.601562 22.769531-14.265625c1.785157-3.738281.203125-8.214844-3.535156-10zm0 0"/><path d="m474.5 197h-63.03125l18.355469-64.671875c5.074219-17.875-3.480469-36.496094-20.335938-44.277344-16.269531-7.511719-31.277343-13.734375-45.667969-18.941406l3.703126-13.058594c3.558593-12.527343-2.4375-25.578125-14.25-31.035156-37.46875-17.296875-67.289063-25.015625-96.644532-25.015625-.085937 0-.167968 0-.253906 0-29.242188.046875-59.289062 7.773438-97.429688 25.0625-11.742187 5.320312-17.9375 18.695312-14.417968 31.109375.308594 1.078125 1.730468 6.097656 3.785156 13.328125-14.304688 5.144531-29.261719 11.269531-45.507812 18.632812-16.753907 7.59375-25.601563 26.675782-20.574219 44.386719l18.300781 64.480469h-63.03125c-20.679688 0-37.5 16.820312-37.5 37.5v240c0 10.019531 3.898438 19.4375 10.980469 26.519531 7.078125 7.082031 16.5 10.980469 26.519531 10.980469h437c10.019531 0 19.4375-3.898438 26.519531-10.980469 7.082031-7.078125 10.980469-16.5 10.980469-26.519531v-240c0-20.679688-16.820312-37.5-37.5-37.5zm-84.316406 75h39.316406c4.128906.011719 7.488281 3.371094 7.5 7.5-.011719 4.128906-3.371094 7.488281-7.5 7.5h-43.574219zm-281.1875-170.203125c15.511718-7.035156 29.789062-12.890625 43.421875-17.828125 6.097656 21.476562 14.078125 49.597656 17.820312 62.78125 1.128907 3.984375 5.277344 6.296875 9.261719 5.167969 3.984375-1.132813 6.296875-5.277344 5.167969-9.265625-6.28125-22.128906-24.511719-86.363282-25.710938-90.578125-1.511719-5.328125 1.148438-11.066407 6.183594-13.351563 69.523437-31.519531 113.714844-31.539062 181.84375-.085937 5.070313 2.335937 7.636719 7.9375 6.113281 13.316406l-25.628906 90.296875c-1.132812 3.984375 1.183594 8.132812 5.167969 9.265625 3.984375 1.128906 8.128906-1.183594 9.261719-5.167969l17.8125-62.769531c13.6875 4.988281 27.988281 10.933594 43.488281 18.089844 10.109375 4.667969 15.238281 15.839843 12.195312 26.5625l-45.0625 158.769531h-68.355469l17.292969-60.921875c1.128907-3.980469-1.183593-8.128906-5.167969-9.261719-3.988281-1.132812-8.132812 1.183594-9.261718 5.167969l-18.453125 65.015625h-60.75l-18.453125-65.015625c-1.132813-3.984375-5.28125-6.300781-9.265625-5.167969-3.984375 1.132813-6.296875 5.277344-5.164063 9.261719l17.289063 60.921875h-68.375l-45.007813-158.574219c-3.015625-10.628906 2.289063-22.074219 12.335938-26.628906zm388.003906 372.703125c-.019531 12.378906-10.121094 22.480469-22.5 22.5h-437c-12.378906-.019531-22.480469-10.121094-22.5-22.5v-90c0-7.0625 3.230469-13.578125 8.851562-17.890625 3.949219-3.007813 8.667969-4.609375 13.648438-4.609375h353c4.128906 0 7.5-3.371094 7.5-7.5s-3.371094-7.5-7.5-7.5h-353.03125c-4.167969 0-8.277344.6875-12.199219 2.039062-3.695312 1.273438-7.148437 3.125-10.269531 5.472657v-120.011719c0-12.40625 10.09375-22.5 22.5-22.5h67.289062l21.285157 75h-43.574219c-4.128906-.011719-7.488281-3.371094-7.5-7.5.011719-4.128906 3.371094-7.488281 7.5-7.5h14.988281c4.132813 0 7.492188-3.359375 7.492188-7.5 0-4.128906-3.351563-7.488281-7.472657-7.5-.007812 0-.019531 0-.019531 0h-14.988281c-6.011719 0-11.660156 2.339844-15.910156 6.589844s-6.589844 9.898437-6.589844 15.910156 2.339844 11.660156 6.589844 15.910156 9.898437 6.589844 15.910156 6.589844h53.472656c.007813 0 .015625.003906.023438.003906.007812 0 .019531-.003906.027344-.003906h83.917968c.007813 0 .015625.003906.023438.003906.007812 0 .019531-.003906.027344-.003906h72.035156c.011718 0 .019531.003906.027344.003906.007812 0 .015624-.003906.023437-.003906h83.898437c.007813 0 .015626.003906.027344.003906.007813 0 .015625-.003906.023438-.003906h53.472656c6.011719 0 11.660156-2.339844 15.910156-6.589844s6.589844-9.898437 6.589844-15.910156-2.339844-11.660156-6.589844-15.910156-9.898437-6.589844-15.910156-6.589844h-35.0625l12.773438-45h67.289062c12.40625 0 22.5 10.09375 22.5 22.5v119.992188c-6.453125-4.859376-14.273438-7.492188-22.5-7.492188h-54c-4.140625 0-7.5 3.371094-7.5 7.5 0 4.140625 3.359375 7.5 7.5 7.5h.019531 53.980469c12.378906.019531 22.480469 10.121094 22.5 22.5zm0 0"/></svg>